# Wavefront Obj file
# 
# verts: 34 uv-s: 70
mtllib korm.mtl

g Cylinder001
#pivot 0.000000 0.000000 0.000000

v 3.131188 0.000000 0.000000
v 2.919746 0.000000 -1.131116
v 2.313976 0.000000 -2.109468
v 1.395691 0.000000 -2.802925
v 0.288910 0.000000 -3.117831
v -0.856890 0.000000 -3.011658
v -1.886963 0.000000 -2.498742
v -2.662190 0.000000 -1.648358
v -3.077874 0.000000 -0.575354
v -3.077874 0.000000 0.575354
v -2.662190 0.000000 1.648358
v -1.886963 0.000000 2.498742
v -0.856890 0.000000 3.011658
v 0.288911 0.000000 3.117831
v 1.395692 0.000000 2.802924
v 2.313978 0.000000 2.109466
v 2.919747 0.000000 1.131113
v 3.131188 6.867076 0.000000
v 2.919746 6.867076 -1.131116
v 2.313976 6.867076 -2.109468
v 1.395691 6.867076 -2.802925
v 0.288910 6.867076 -3.117831
v -0.856890 6.867076 -3.011658
v -1.886963 6.867076 -2.498742
v -2.662190 6.867076 -1.648358
v -3.077874 6.867076 -0.575354
v -3.077874 6.867076 0.575354
v -2.662190 6.867076 1.648358
v -1.886963 6.867076 2.498742
v -0.856890 6.867076 3.011658
v 0.288911 6.867076 3.117831
v 1.395692 6.867076 2.802924
v 2.313978 6.867076 2.109466
v 2.919747 6.867076 1.131113
# 34 positions

vt 0.472261 0.021254
vt 0.528677 0.021410
vt 0.527742 0.358081
vt 0.471326 0.357925
vt 0.585092 0.021567
vt 0.584158 0.358238
vt 0.641508 0.021724
vt 0.640573 0.358394
vt 0.697923 0.021880
vt 0.696989 0.358551
vt 0.754338 0.022037
vt 0.753405 0.358707
vt 0.810754 0.022193
vt 0.809820 0.358864
vt 0.867169 0.022350
vt 0.866236 0.359020
vt 0.923585 0.022506
vt 0.922651 0.359176
vt 0.980000 0.022663
vt 0.979067 0.359333
vt 0.020935 0.020000
vt 0.077351 0.020157
vt 0.076416 0.356829
vt 0.020000 0.356672
vt 0.133766 0.020313
vt 0.132831 0.356985
vt 0.190182 0.020470
vt 0.189247 0.357142
vt 0.246598 0.020627
vt 0.245663 0.357299
vt 0.303014 0.020783
vt 0.302079 0.357455
vt 0.359430 0.020940
vt 0.358495 0.357612
vt 0.415846 0.021097
vt 0.414911 0.357768
vt 0.077144 0.475197
vt 0.146476 0.422840
vt 0.230040 0.399064
vt 0.316549 0.407080
vt 0.394322 0.445806
vt 0.452853 0.510011
vt 0.484237 0.591025
vt 0.484237 0.677905
vt 0.452853 0.758919
vt 0.394322 0.823124
vt 0.316549 0.861850
vt 0.230040 0.869867
vt 0.146476 0.846091
vt 0.077144 0.793733
vt 0.031407 0.719866
vt 0.015443 0.634465
vt 0.031407 0.549064
vt 0.522238 0.549064
vt 0.567974 0.475197
vt 0.637307 0.422840
vt 0.720870 0.399064
vt 0.807380 0.407080
vt 0.885152 0.445806
vt 0.943683 0.510011
vt 0.975068 0.591025
vt 0.975068 0.677905
vt 0.943683 0.758919
vt 0.885152 0.823124
vt 0.807380 0.861850
vt 0.720870 0.869867
vt 0.637306 0.846091
vt 0.567974 0.793733
vt 0.522238 0.719866
vt 0.506274 0.634465
# 70 texture coordinates

vn 1.000000 -0.000000 -0.000000
vn 0.932472 0.000000 -0.361242
vn 0.932472 0.000000 -0.361242
vn 1.000000 0.000000 -0.000000
vn 0.739009 0.000000 -0.673696
vn 0.739009 0.000000 -0.673696
vn 0.445738 0.000000 -0.895163
vn 0.445738 0.000000 -0.895163
vn 0.092268 0.000000 -0.995734
vn 0.092268 0.000000 -0.995734
vn -0.273663 0.000000 -0.961826
vn -0.273663 0.000000 -0.961826
vn -0.602635 0.000000 -0.798017
vn -0.602635 0.000000 -0.798017
vn -0.850217 0.000000 -0.526432
vn -0.850217 0.000000 -0.526432
vn -0.982973 0.000000 -0.183749
vn -0.982973 0.000000 -0.183749
vn -0.982973 0.000000 0.183749
vn -0.982973 0.000000 0.183749
vn -0.850217 0.000000 0.526432
vn -0.850217 0.000000 0.526432
vn -0.602635 0.000000 0.798017
vn -0.602635 0.000000 0.798017
vn -0.273663 0.000000 0.961826
vn -0.273663 0.000000 0.961826
vn 0.092269 0.000000 0.995734
vn 0.092269 0.000000 0.995734
vn 0.445739 0.000000 0.895163
vn 0.445739 0.000000 0.895163
vn 0.739009 0.000000 0.673695
vn 0.739009 0.000000 0.673695
vn 0.932473 -0.000000 0.361241
vn 0.932473 0.000000 0.361241
vn 0.000000 -1.000000 0.000000
vn 0.000000 -1.000000 0.000000
vn 0.000000 -1.000000 0.000000
vn 0.000000 -1.000000 0.000000
vn 0.000000 -1.000000 0.000000
vn 0.000000 -1.000000 0.000000
vn 0.000000 -1.000000 0.000000
vn 0.000000 -1.000000 0.000000
vn 0.000000 -1.000000 0.000000
vn 0.000000 -1.000000 0.000000
vn 0.000000 -1.000000 0.000000
vn 0.000000 -1.000000 0.000000
vn 0.000000 -1.000000 0.000000
vn 0.000000 -1.000000 0.000000
vn 0.000000 -1.000000 0.000000
vn 0.000000 -1.000000 0.000000
vn 0.000000 -1.000000 0.000000
vn 0.000000 1.000000 0.000000
vn 0.000000 1.000000 0.000000
vn 0.000000 1.000000 0.000000
vn 0.000000 1.000000 0.000000
vn 0.000000 1.000000 0.000000
vn 0.000000 1.000000 0.000000
vn 0.000000 1.000000 0.000000
vn 0.000000 1.000000 0.000000
vn 0.000000 1.000000 0.000000
vn 0.000000 1.000000 0.000000
vn 0.000000 1.000000 0.000000
vn 0.000000 1.000000 0.000000
vn 0.000000 1.000000 0.000000
vn 0.000000 1.000000 0.000000
vn 0.000000 1.000000 0.000000
vn 0.000000 1.000000 0.000000
vn 0.000000 1.000000 0.000000
# 68 normals

usemtl 
s 1
f 1/1/1 2/2/2 19/3/3
f 19/3/3 18/4/4 1/1/1
f 2/2/2 3/5/5 20/6/6
f 20/6/6 19/3/3 2/2/2
f 3/5/5 4/7/7 21/8/8
f 21/8/8 20/6/6 3/5/5
f 4/7/7 5/9/9 22/10/10
f 22/10/10 21/8/8 4/7/7
f 5/9/9 6/11/11 23/12/12
f 23/12/12 22/10/10 5/9/9
f 6/11/11 7/13/13 24/14/14
f 24/14/14 23/12/12 6/11/11
f 7/13/13 8/15/15 25/16/16
f 25/16/16 24/14/14 7/13/13
f 8/15/15 9/17/17 26/18/18
f 26/18/18 25/16/16 8/15/15
f 9/17/17 10/19/19 27/20/20
f 27/20/20 26/18/18 9/17/17
f 10/21/19 11/22/21 28/23/22
f 28/23/22 27/24/20 10/21/19
f 11/22/21 12/25/23 29/26/24
f 29/26/24 28/23/22 11/22/21
f 12/25/23 13/27/25 30/28/26
f 30/28/26 29/26/24 12/25/23
f 13/27/25 14/29/27 31/30/28
f 31/30/28 30/28/26 13/27/25
f 14/29/27 15/31/29 32/32/30
f 32/32/30 31/30/28 14/29/27
f 15/31/29 16/33/31 33/34/32
f 33/34/32 32/32/30 15/31/29
f 16/33/31 17/35/33 34/36/34
f 34/36/34 33/34/32 16/33/31
f 17/35/33 1/1/1 18/4/4
f 18/4/4 34/36/34 17/35/33
s 2
f 16/37/35 15/38/36 14/39/37
f 14/39/37 13/40/38 12/41/39
f 16/37/35 14/39/37 12/41/39
f 12/41/39 11/42/40 10/43/41
f 10/43/41 9/44/42 8/45/43
f 12/41/39 10/43/41 8/45/43
f 8/45/43 7/46/44 6/47/45
f 6/47/45 5/48/46 4/49/47
f 8/45/43 6/47/45 4/49/47
f 12/41/39 8/45/43 4/49/47
f 16/37/35 12/41/39 4/49/47
f 4/49/47 3/50/48 2/51/49
f 16/37/35 4/49/47 2/51/49
f 16/37/35 2/51/49 1/52/50
f 17/53/51 16/37/35 1/52/50
s 3
f 19/54/52 20/55/53 21/56/54
f 21/56/54 22/57/55 23/58/56
f 19/54/52 21/56/54 23/58/56
f 23/58/56 24/59/57 25/60/58
f 25/60/58 26/61/59 27/62/60
f 23/58/56 25/60/58 27/62/60
f 27/62/60 28/63/61 29/64/62
f 29/64/62 30/65/63 31/66/64
f 27/62/60 29/64/62 31/66/64
f 23/58/56 27/62/60 31/66/64
f 19/54/52 23/58/56 31/66/64
f 31/66/64 32/67/65 33/68/66
f 19/54/52 31/66/64 33/68/66
f 19/54/52 33/68/66 34/69/67
f 18/70/68 19/54/52 34/69/67

# 64 faces
