# 3ds Max Wavefront OBJ Exporter v0.97b - (c)2007 guruware
# File Created: 16.05.2020 18:58:59

mtllib container2.mtl

#
# object container2
#

v  118.8342 -48.2283 46.2599
v  -121.1658 -48.2283 46.2599
v  -121.1658 -48.2283 -46.2598
v  118.8342 -48.2283 -46.2598
v  -121.1658 48.2283 -46.2598
v  -121.1658 48.2283 46.2599
v  118.8342 48.2283 46.2599
v  118.8342 48.2283 -46.2598
v  121.1658 41.5878 26.2238
v  121.1658 39.2256 26.2238
v  118.7963 39.2256 23.8542
v  118.7963 41.5878 23.8542
v  118.7963 39.2256 28.5932
v  118.7963 41.5878 28.5932
v  121.1658 41.5878 9.8847
v  121.1658 39.2256 9.8847
v  118.7963 39.2256 7.5152
v  118.7963 41.5878 7.5152
v  118.7963 39.2256 12.2542
v  118.7963 41.5878 12.2542
v  121.1658 41.5878 -9.8846
v  121.1658 39.2256 -9.8846
v  118.7963 39.2256 -12.2540
v  118.7963 41.5878 -12.2540
v  118.7963 39.2256 -7.5152
v  118.7963 41.5878 -7.5152
v  121.1658 41.5878 -26.2236
v  121.1658 39.2256 -26.2236
v  118.7963 39.2256 -28.5932
v  118.7963 41.5878 -28.5932
v  118.7963 39.2256 -23.8541
v  118.7963 41.5878 -23.8541
v  120.5762 46.4429 -26.2090
v  120.5762 -47.4510 -26.2090
v  120.1440 -47.4510 -26.9576
v  120.1440 46.4429 -26.9576
v  119.2795 -47.4510 -26.9576
v  119.2795 46.4429 -26.9576
v  118.8473 -47.4510 -26.2090
v  118.8473 46.4429 -26.2090
v  119.2795 -47.4510 -25.4603
v  119.2795 46.4429 -25.4603
v  120.1440 -47.4510 -25.4603
v  120.1440 46.4429 -25.4603
v  120.5762 46.4429 -9.8699
v  120.5762 -47.4510 -9.8699
v  120.1440 -47.4510 -10.6185
v  120.1440 46.4429 -10.6185
v  119.2795 -47.4510 -10.6185
v  119.2795 46.4429 -10.6185
v  118.8473 -47.4510 -9.8699
v  118.8473 46.4429 -9.8699
v  119.2795 -47.4510 -9.1214
v  119.2795 46.4429 -9.1214
v  120.1440 -47.4510 -9.1214
v  120.1440 46.4429 -9.1214
v  120.5762 46.4429 9.8994
v  120.5762 -47.4510 9.8994
v  120.1440 -47.4510 9.1508
v  120.1440 46.4429 9.1508
v  119.2795 -47.4510 9.1508
v  119.2795 46.4429 9.1508
v  118.8473 -47.4510 9.8994
v  118.8473 46.4429 9.8994
v  119.2795 -47.4510 10.6479
v  119.2795 46.4429 10.6479
v  120.1440 -47.4510 10.6479
v  120.1440 46.4429 10.6479
v  120.5762 46.4429 26.2384
v  120.5762 -47.4510 26.2384
v  120.1440 -47.4510 25.4897
v  120.1440 46.4429 25.4897
v  119.2795 -47.4510 25.4897
v  119.2795 46.4429 25.4897
v  118.8473 -47.4510 26.2384
v  118.8473 46.4429 26.2384
v  119.2795 -47.4510 26.9870
v  119.2795 46.4429 26.9870
v  120.1440 -47.4510 26.9870
v  120.1440 46.4429 26.9870
v  121.1658 -40.9609 26.2238
v  121.1658 -43.3232 26.2238
v  118.7963 -43.3232 23.8542
v  118.7963 -40.9609 23.8542
v  118.7963 -43.3232 28.5932
v  118.7963 -40.9609 28.5932
v  121.1658 -40.9609 9.8847
v  121.1658 -43.3232 9.8847
v  118.7963 -43.3232 7.5152
v  118.7963 -40.9609 7.5152
v  118.7963 -43.3232 12.2542
v  118.7963 -40.9609 12.2542
v  121.1658 -40.9609 -9.8846
v  121.1658 -43.3232 -9.8846
v  118.7963 -43.3232 -12.2540
v  118.7963 -40.9609 -12.2540
v  118.7963 -43.3232 -7.5152
v  118.7963 -40.9609 -7.5152
v  121.1658 -40.9609 -26.2236
v  121.1658 -43.3232 -26.2236
v  118.7963 -43.3232 -28.5932
v  118.7963 -40.9609 -28.5932
v  118.7963 -43.3232 -23.8541
v  118.7963 -40.9609 -23.8541
# 104 vertices

vn 0.0000 -1.0000 -0.0000
vn 0.0000 1.0000 -0.0000
vn 0.0000 0.0000 1.0000
vn 1.0000 0.0000 0.0000
vn 0.0000 0.0000 -1.0000
vn -1.0000 0.0000 0.0000
vn 0.7071 0.0000 -0.7071
vn 0.7071 0.0000 0.7071
vn 0.5000 0.0000 -0.8660
vn -0.5000 0.0000 -0.8660
vn -0.5000 0.0000 0.8660
vn 0.5000 0.0000 0.8660
vn 1.0000 0.0000 -0.0000
vn -1.0000 0.0000 -0.0000
# 14 vertex normals

vt 0.5971 0.9882 0.0000
vt 0.0020 0.9882 0.0000
vt 0.0020 0.7588 0.0000
vt 0.5971 0.7588 0.0000
vt 0.0020 0.7425 0.0000
vt 0.0020 0.5131 0.0000
vt 0.5971 0.5131 0.0000
vt 0.5971 0.7425 0.0000
vt -0.0001 0.2412 0.0000
vt -0.0001 0.0020 0.0000
vt 0.5951 0.0020 0.0000
vt 0.5951 0.2412 0.0000
vt 0.6115 0.2408 0.0000
vt 0.6115 -0.0007 0.0000
vt 0.8463 -0.0007 0.0000
vt 0.8463 0.2408 0.0000
vt 0.0020 0.4967 0.0000
vt 0.0020 0.2575 0.0000
vt 0.5971 0.2575 0.0000
vt 0.5971 0.4967 0.0000
vt 0.6176 0.9898 0.0000
vt 0.6176 0.7506 0.0000
vt 0.8470 0.7506 0.0000
vt 0.8470 0.9898 0.0000
vt 0.6704 0.7003 0.0000
vt 0.6704 0.6886 0.0000
vt 0.6821 0.6886 0.0000
vt 0.6821 0.7003 0.0000
vt 0.6586 0.6886 0.0000
vt 0.6586 0.7003 0.0000
vt 0.7513 0.7003 0.0000
vt 0.7513 0.6886 0.0000
vt 0.7630 0.6886 0.0000
vt 0.7630 0.7003 0.0000
vt 0.7396 0.6886 0.0000
vt 0.7396 0.7003 0.0000
vt 0.8492 0.7003 0.0000
vt 0.8492 0.6886 0.0000
vt 0.8609 0.6886 0.0000
vt 0.8609 0.7003 0.0000
vt 0.8375 0.6886 0.0000
vt 0.8375 0.7003 0.0000
vt 0.9301 0.7003 0.0000
vt 0.9301 0.6886 0.0000
vt 0.9419 0.6886 0.0000
vt 0.9419 0.7003 0.0000
vt 0.9184 0.6886 0.0000
vt 0.9184 0.7003 0.0000
vt 0.9300 0.7243 0.0000
vt 0.9300 0.2593 0.0000
vt 0.9338 0.2593 0.0000
vt 0.9338 0.7243 0.0000
vt 0.9263 0.2593 0.0000
vt 0.9263 0.7243 0.0000
vt 0.8491 0.7243 0.0000
vt 0.8491 0.2593 0.0000
vt 0.8528 0.2593 0.0000
vt 0.8528 0.7243 0.0000
vt 0.8454 0.2593 0.0000
vt 0.8454 0.7243 0.0000
vt 0.7512 0.7243 0.0000
vt 0.7512 0.2593 0.0000
vt 0.7549 0.2593 0.0000
vt 0.7549 0.7243 0.0000
vt 0.7475 0.2593 0.0000
vt 0.7475 0.7243 0.0000
vt 0.6703 0.7243 0.0000
vt 0.6703 0.2593 0.0000
vt 0.6740 0.2593 0.0000
vt 0.6740 0.7243 0.0000
vt 0.6666 0.2593 0.0000
vt 0.6666 0.7243 0.0000
vt 0.6704 0.2915 0.0000
vt 0.6704 0.2798 0.0000
vt 0.6821 0.2798 0.0000
vt 0.6821 0.2915 0.0000
vt 0.6586 0.2798 0.0000
vt 0.6586 0.2915 0.0000
vt 0.7513 0.2915 0.0000
vt 0.7513 0.2798 0.0000
vt 0.7630 0.2798 0.0000
vt 0.7630 0.2915 0.0000
vt 0.7396 0.2798 0.0000
vt 0.7396 0.2915 0.0000
vt 0.8492 0.2915 0.0000
vt 0.8492 0.2798 0.0000
vt 0.8609 0.2798 0.0000
vt 0.8609 0.2915 0.0000
vt 0.8375 0.2798 0.0000
vt 0.8375 0.2915 0.0000
vt 0.9301 0.2915 0.0000
vt 0.9301 0.2798 0.0000
vt 0.9419 0.2798 0.0000
vt 0.9419 0.2915 0.0000
vt 0.9184 0.2798 0.0000
vt 0.9184 0.2915 0.0000
# 96 texture coords

g container2
usemtl wire_028149177
s 1
f 1/1/1 2/2/1 3/3/1 4/4/1 
f 5/5/2 6/6/2 7/7/2 8/8/2 
f 6/9/3 2/10/3 1/11/3 7/12/3 
f 7/13/4 1/14/4 4/15/4 8/16/4 
f 8/17/5 4/18/5 3/19/5 5/20/5 
f 5/21/6 3/22/6 2/23/6 6/24/6 
f 9/25/7 10/26/7 11/27/7 12/28/7 
f 11/27/1 10/26/1 13/29/1 
f 14/30/2 9/25/2 12/28/2 
f 14/30/8 13/29/8 10/26/8 9/25/8 
f 15/31/7 16/32/7 17/33/7 18/34/7 
f 17/33/1 16/32/1 19/35/1 
f 20/36/2 15/31/2 18/34/2 
f 20/36/8 19/35/8 16/32/8 15/31/8 
f 21/37/7 22/38/7 23/39/7 24/40/7 
f 23/39/1 22/38/1 25/41/1 
f 26/42/2 21/37/2 24/40/2 
f 26/42/8 25/41/8 22/38/8 21/37/8 
f 27/43/7 28/44/7 29/45/7 30/46/7 
f 29/45/1 28/44/1 31/47/1 
f 32/48/2 27/43/2 30/46/2 
f 32/48/8 31/47/8 28/44/8 27/43/8 
f 33/49/4 34/50/4 35/51/9 36/52/9 
f 36/52/9 35/51/9 37/51/10 38/52/10 
f 38/52/10 37/51/10 39/50/6 40/49/6 
f 40/49/6 39/50/6 41/53/11 42/54/11 
f 42/54/11 41/53/11 43/53/12 44/54/12 
f 44/54/12 43/53/12 34/50/4 33/49/4 
f 37/51/1 35/51/1 34/50/1 41/53/1 
f 34/50/1 43/53/1 41/53/1 
f 37/51/1 41/53/1 39/50/1 
f 40/49/2 42/54/2 44/54/2 36/52/2 
f 44/54/2 33/49/2 36/52/2 
f 40/49/2 36/52/2 38/52/2 
f 45/55/13 46/56/13 47/57/9 48/58/9 
f 48/58/9 47/57/9 49/57/10 50/58/10 
f 50/58/10 49/57/10 51/56/6 52/55/14 
f 52/55/14 51/56/6 53/59/11 54/60/11 
f 54/60/11 53/59/11 55/59/12 56/60/12 
f 56/60/12 55/59/12 46/56/13 45/55/13 
f 49/57/1 47/57/1 46/56/1 53/59/1 
f 46/56/1 55/59/1 53/59/1 
f 49/57/1 53/59/1 51/56/1 
f 52/55/2 54/60/2 56/60/2 48/58/2 
f 56/60/2 45/55/2 48/58/2 
f 52/55/2 48/58/2 50/58/2 
f 57/61/13 58/62/4 59/63/9 60/64/9 
f 60/64/9 59/63/9 61/63/10 62/64/10 
f 62/64/10 61/63/10 63/62/6 64/61/14 
f 64/61/14 63/62/6 65/65/11 66/66/11 
f 66/66/11 65/65/11 67/65/12 68/66/12 
f 68/66/12 67/65/12 58/62/4 57/61/13 
f 61/63/1 59/63/1 58/62/1 65/65/1 
f 58/62/1 67/65/1 65/65/1 
f 61/63/1 65/65/1 63/62/1 
f 64/61/2 66/66/2 68/66/2 60/64/2 
f 68/66/2 57/61/2 60/64/2 
f 64/61/2 60/64/2 62/64/2 
f 69/67/4 70/68/4 71/69/9 72/70/9 
f 72/70/9 71/69/9 73/69/10 74/70/10 
f 74/70/10 73/69/10 75/68/6 76/67/6 
f 76/67/6 75/68/6 77/71/11 78/72/11 
f 78/72/11 77/71/11 79/71/12 80/72/12 
f 80/72/12 79/71/12 70/68/4 69/67/4 
f 73/69/1 71/69/1 70/68/1 77/71/1 
f 70/68/1 79/71/1 77/71/1 
f 73/69/1 77/71/1 75/68/1 
f 76/67/2 78/72/2 80/72/2 72/70/2 
f 80/72/2 69/67/2 72/70/2 
f 76/67/2 72/70/2 74/70/2 
f 81/73/7 82/74/7 83/75/7 84/76/7 
f 83/75/1 82/74/1 85/77/1 
f 86/78/2 81/73/2 84/76/2 
f 86/78/8 85/77/8 82/74/8 81/73/8 
f 87/79/7 88/80/7 89/81/7 90/82/7 
f 89/81/1 88/80/1 91/83/1 
f 92/84/2 87/79/2 90/82/2 
f 92/84/8 91/83/8 88/80/8 87/79/8 
f 93/85/7 94/86/7 95/87/7 96/88/7 
f 95/87/1 94/86/1 97/89/1 
f 98/90/2 93/85/2 96/88/2 
f 98/90/8 97/89/8 94/86/8 93/85/8 
f 99/91/7 100/92/7 101/93/7 102/94/7 
f 101/93/1 100/92/1 103/95/1 
f 104/96/2 99/91/2 102/94/2 
f 104/96/8 103/95/8 100/92/8 99/91/8 
# 54 polygons - 32 triangles

