# 3ds Max Wavefront OBJ Exporter v0.97b - (c)2007 guruware
# File Created: 16.05.2020 18:59:37

mtllib container1.mtl

#
# object container1
#

v  -120.0000 -43.3858 46.2598
v  -116.4540 -43.3858 46.2598
v  -116.4540 43.3858 46.2598
v  -120.0000 43.3858 46.2598
v  120.0000 -43.3858 -46.2598
v  116.4000 -43.3858 -46.2598
v  116.4000 43.3858 -46.2598
v  120.0000 43.3858 -46.2598
v  120.0000 -43.3858 -44.2913
v  120.0000 43.3858 -44.2913
v  120.0000 43.3858 44.2913
v  120.0000 43.3858 46.2598
v  120.0000 -43.3858 46.2598
v  120.0000 -43.3858 44.2913
v  -120.0000 -43.3858 44.2913
v  -120.0000 43.3858 44.2913
v  -120.0000 43.3858 -44.2913
v  -120.0000 43.3858 -46.2598
v  -120.0000 -43.3858 -46.2598
v  -120.0000 -43.3858 -44.2913
v  -116.4540 -43.3858 44.2913
v  -116.4540 43.3858 44.2913
v  -116.4540 43.3858 -44.2913
v  -116.4540 -43.3858 -44.2913
v  116.4000 -43.3858 46.2598
v  116.4000 43.3858 46.2598
v  -116.4540 -43.3858 -46.2598
v  -116.4540 43.3858 -46.2598
v  116.4000 43.3858 44.2913
v  116.4000 -43.3858 44.2913
v  116.4000 -43.3858 -44.2913
v  116.4000 43.3858 -44.2913
v  -116.4540 -48.2283 -41.5781
v  116.4000 -48.2283 -41.5781
v  116.4000 -48.2283 41.5781
v  -116.4540 -48.2283 41.5781
v  -116.4540 48.2283 41.5781
v  116.4000 48.2283 41.5781
v  116.4000 48.2283 -41.5781
v  -116.4540 48.2283 -41.5781
v  -116.4540 46.2599 -41.5781
v  116.4000 46.2599 -41.5781
v  116.4000 46.2599 41.5781
v  -116.4540 46.2599 41.5781
v  -116.4540 -46.2598 41.5781
v  116.4000 -46.2598 41.5781
v  116.4000 -46.2598 -41.5781
v  -116.4540 -46.2598 -41.5781
v  -120.0000 48.2283 -41.5781
v  -116.4540 48.2283 -46.2598
v  -120.0000 48.2283 -46.2598
v  -120.0000 48.2283 41.5781
v  -120.0000 48.2283 46.2598
v  -116.4540 48.2283 46.2598
v  120.0000 46.2599 44.2913
v  120.0000 46.2599 41.5781
v  120.0000 48.2283 41.5781
v  120.0000 48.2283 46.2598
v  120.0000 48.2283 -41.5781
v  120.0000 46.2599 -41.5781
v  120.0000 46.2599 -44.2913
v  120.0000 48.2283 -46.2598
v  -120.0000 46.2599 -44.2913
v  -120.0000 46.2599 -41.5781
v  -120.0000 46.2599 41.5781
v  -120.0000 46.2599 44.2913
v  116.4000 48.2283 -46.2598
v  116.4000 48.2283 46.2598
v  116.4000 46.2599 44.2913
v  -116.4540 46.2599 44.2913
v  -116.4540 46.2599 -44.2913
v  116.4000 46.2599 -44.2913
v  -120.0000 -48.2283 -41.5781
v  -120.0000 -48.2283 -46.2598
v  -116.4540 -48.2283 -46.2598
v  -120.0000 -48.2283 41.5781
v  -116.4540 -48.2283 46.2598
v  -120.0000 -48.2283 46.2598
v  120.0000 -46.2598 -44.2913
v  120.0000 -46.2598 -41.5781
v  120.0000 -48.2283 -41.5781
v  120.0000 -48.2283 -46.2598
v  120.0000 -48.2283 41.5781
v  120.0000 -46.2598 41.5781
v  120.0000 -46.2598 44.2913
v  120.0000 -48.2283 46.2598
v  -120.0000 -46.2598 44.2913
v  -120.0000 -46.2598 41.5781
v  -120.0000 -46.2598 -41.5781
v  -120.0000 -46.2598 -44.2913
v  116.4000 -48.2283 46.2598
v  116.4000 -48.2283 -46.2598
v  116.4000 -46.2598 -44.2913
v  -116.4540 -46.2598 -44.2913
v  -116.4540 -46.2598 44.2913
v  116.4000 -46.2598 44.2913
v  -116.4540 -43.3858 -41.5780
v  -120.0000 -43.3858 -41.5780
v  -120.0000 43.3858 -41.5780
v  -116.4540 43.3858 -41.5780
v  116.4000 43.3858 -41.5780
v  120.0000 43.3858 -41.5780
v  120.0000 -43.3858 -41.5780
v  116.4000 -43.3858 -41.5780
v  -116.4540 43.3858 41.5780
v  -120.0000 43.3858 41.5780
v  -120.0000 -43.3858 41.5780
v  -116.4540 -43.3858 41.5780
v  116.4000 -43.3858 41.5780
v  120.0000 -43.3858 41.5780
v  120.0000 43.3858 41.5780
v  116.4000 43.3858 41.5780
# 112 vertices

vn 0.0000 0.0000 1.0000
vn 0.0000 0.0000 -1.0000
vn 1.0000 0.0000 -0.0000
vn -1.0000 0.0000 -0.0000
vn 0.0000 -1.0000 -0.0000
vn 0.0000 1.0000 -0.0000
vn 0.0000 -0.0000 1.0000
vn -0.7071 -0.0000 0.7071
vn -0.7071 0.0000 0.7071
vn 0.7071 0.0000 0.7071
vn -0.7071 0.0000 -0.7071
vn 0.0000 -0.0000 -1.0000
vn -0.7071 -0.0000 -0.7071
vn 0.7071 0.0000 -0.7071
# 14 vertex normals

vt -0.0001 0.0118 0.0000
vt 0.0087 0.0118 0.0000
vt 0.0087 0.2314 0.0000
vt -0.0001 0.2314 0.0000
vt 0.0020 0.2673 0.0000
vt 0.0109 0.2673 0.0000
vt 0.0109 0.4869 0.0000
vt 0.0020 0.4869 0.0000
vt 0.8440 0.0136 0.0000
vt 0.8489 0.0136 0.0000
vt 0.8489 0.2301 0.0000
vt 0.8440 0.2301 0.0000
vt 0.6229 0.2301 0.0000
vt 0.6180 0.2301 0.0000
vt 0.6180 0.0136 0.0000
vt 0.6229 0.0136 0.0000
vt 0.8441 0.0134 0.0000
vt 0.8490 0.0134 0.0000
vt 0.8490 0.2303 0.0000
vt 0.8441 0.2303 0.0000
vt 0.6227 0.2303 0.0000
vt 0.6178 0.2303 0.0000
vt 0.6178 0.0134 0.0000
vt 0.6227 0.0134 0.0000
vt 0.8423 0.2944 0.0000
vt 0.8423 0.3033 0.0000
vt 0.6254 0.3033 0.0000
vt 0.6254 0.2944 0.0000
vt 0.8423 0.2832 0.0000
vt 0.8423 0.2921 0.0000
vt 0.6254 0.2921 0.0000
vt 0.6254 0.2832 0.0000
vt 0.5861 0.0118 0.0000
vt 0.5951 0.0118 0.0000
vt 0.5951 0.2314 0.0000
vt 0.5861 0.2314 0.0000
vt 0.5883 0.2673 0.0000
vt 0.5883 0.4869 0.0000
vt 0.6244 0.2709 0.0000
vt 0.6244 0.2619 0.0000
vt 0.8410 0.2619 0.0000
vt 0.8410 0.2709 0.0000
vt 0.8412 0.2725 0.0000
vt 0.8412 0.2815 0.0000
vt 0.6246 0.2815 0.0000
vt 0.6246 0.2725 0.0000
vt 0.0108 0.7682 0.0000
vt 0.5882 0.7682 0.0000
vt 0.5882 0.9789 0.0000
vt 0.0108 0.9789 0.0000
vt 0.0108 0.5224 0.0000
vt 0.5882 0.5224 0.0000
vt 0.5882 0.7331 0.0000
vt 0.0108 0.7331 0.0000
vt 0.8469 0.2587 0.0000
vt 0.8480 0.7417 0.0000
vt 0.6187 0.7420 0.0000
vt 0.6176 0.2590 0.0000
vt 0.6189 0.7418 0.0000
vt 0.6190 0.2592 0.0000
vt 0.8477 0.2592 0.0000
vt 0.8477 0.7418 0.0000
vt 0.6187 0.2593 0.0000
vt 0.8479 0.2593 0.0000
vt 0.8479 0.7420 0.0000
vt 0.6185 0.7418 0.0000
vt 0.6185 0.2598 0.0000
vt 0.8480 0.2598 0.0000
vt 0.8480 0.7418 0.0000
vt 0.5971 0.2673 0.0000
vt 0.5971 0.4869 0.0000
vt 0.0020 0.7331 0.0000
vt 0.0108 0.7425 0.0000
vt 0.0020 0.7425 0.0000
vt 0.0020 0.5224 0.0000
vt 0.0020 0.5131 0.0000
vt 0.0108 0.5131 0.0000
vt 0.6229 0.2373 0.0000
vt 0.6296 0.2373 0.0000
vt 0.6296 0.2422 0.0000
vt 0.6180 0.2422 0.0000
vt 0.8372 0.2422 0.0000
vt 0.8372 0.2373 0.0000
vt 0.8440 0.2373 0.0000
vt 0.8489 0.2422 0.0000
vt 0.6227 0.2375 0.0000
vt 0.6295 0.2375 0.0000
vt 0.6295 0.2424 0.0000
vt 0.6178 0.2424 0.0000
vt 0.8373 0.2424 0.0000
vt 0.8373 0.2375 0.0000
vt 0.8441 0.2375 0.0000
vt 0.8490 0.2424 0.0000
vt 0.5971 0.7331 0.0000
vt 0.5971 0.7425 0.0000
vt 0.5882 0.7425 0.0000
vt 0.5971 0.5224 0.0000
vt 0.5882 0.5131 0.0000
vt 0.5971 0.5131 0.0000
vt 0.0020 0.7682 0.0000
vt 0.0020 0.7588 0.0000
vt 0.0108 0.7588 0.0000
vt 0.0020 0.9789 0.0000
vt 0.0108 0.9882 0.0000
vt 0.0020 0.9882 0.0000
vt 0.8440 0.0064 0.0000
vt 0.8372 0.0064 0.0000
vt 0.8372 0.0015 0.0000
vt 0.8489 0.0015 0.0000
vt 0.6296 0.0015 0.0000
vt 0.6296 0.0064 0.0000
vt 0.6229 0.0064 0.0000
vt 0.6180 0.0015 0.0000
vt 0.8441 0.0062 0.0000
vt 0.8373 0.0062 0.0000
vt 0.8373 0.0013 0.0000
vt 0.8490 0.0013 0.0000
vt 0.6295 0.0013 0.0000
vt 0.6295 0.0062 0.0000
vt 0.6227 0.0062 0.0000
vt 0.6178 0.0013 0.0000
vt 0.5971 0.9789 0.0000
vt 0.5971 0.9882 0.0000
vt 0.5882 0.9882 0.0000
vt 0.5971 0.7682 0.0000
vt 0.5882 0.7588 0.0000
vt 0.5971 0.7588 0.0000
vt 0.0109 0.4967 0.0000
vt 0.0020 0.4967 0.0000
vt 0.0020 0.2575 0.0000
vt 0.0109 0.2575 0.0000
vt 0.6354 0.3162 0.0000
vt 0.6354 0.3073 0.0000
vt 0.6425 0.3073 0.0000
vt 0.6425 0.3162 0.0000
vt 0.6617 0.3164 0.0000
vt 0.6617 0.3076 0.0000
vt 0.6689 0.3076 0.0000
vt 0.6689 0.3164 0.0000
vt 0.5883 0.4967 0.0000
vt 0.5883 0.2575 0.0000
vt 0.7868 0.3055 0.0000
vt 0.7868 0.3144 0.0000
vt 0.7797 0.3144 0.0000
vt 0.7797 0.3055 0.0000
vt 0.7660 0.3078 0.0000
vt 0.7660 0.3168 0.0000
vt 0.7588 0.3168 0.0000
vt 0.7588 0.3078 0.0000
vt 0.5971 0.4967 0.0000
vt 0.5971 0.2575 0.0000
vt 0.0087 0.2412 0.0000
vt -0.0001 0.2412 0.0000
vt -0.0001 0.0020 0.0000
vt 0.0087 0.0020 0.0000
vt 0.7966 0.3164 0.0000
vt 0.7966 0.3076 0.0000
vt 0.8038 0.3076 0.0000
vt 0.8038 0.3164 0.0000
vt 0.8204 0.3147 0.0000
vt 0.8204 0.3058 0.0000
vt 0.8276 0.3058 0.0000
vt 0.8276 0.3147 0.0000
vt 0.5951 0.2412 0.0000
vt 0.5861 0.2412 0.0000
vt 0.5861 0.0020 0.0000
vt 0.5951 0.0020 0.0000
vt 0.7127 0.3150 0.0000
vt 0.7127 0.3061 0.0000
vt 0.7199 0.3061 0.0000
vt 0.7199 0.3150 0.0000
vt 0.7000 0.3073 0.0000
vt 0.7000 0.3163 0.0000
vt 0.6928 0.3163 0.0000
vt 0.6928 0.3073 0.0000
vt 0.6296 0.0136 0.0000
vt 0.7103 0.3143 0.0000
vt 0.7036 0.3143 0.0000
vt 0.7036 0.3054 0.0000
vt 0.7103 0.3054 0.0000
vt 0.7539 0.3078 0.0000
vt 0.7539 0.3168 0.0000
vt 0.7248 0.3061 0.0000
vt 0.7248 0.3150 0.0000
vt 0.8372 0.0136 0.0000
vt 0.7673 0.3068 0.0000
vt 0.7741 0.3068 0.0000
vt 0.7741 0.3158 0.0000
vt 0.7673 0.3158 0.0000
vt 0.6879 0.3073 0.0000
vt 0.6879 0.3163 0.0000
vt 0.7747 0.3144 0.0000
vt 0.7747 0.3055 0.0000
vt 0.8372 0.2301 0.0000
vt 0.7875 0.3054 0.0000
vt 0.7942 0.3054 0.0000
vt 0.7942 0.3144 0.0000
vt 0.7875 0.3144 0.0000
vt 0.6296 0.2301 0.0000
vt 0.6851 0.3173 0.0000
vt 0.6784 0.3173 0.0000
vt 0.6784 0.3083 0.0000
vt 0.6851 0.3083 0.0000
vt 0.6738 0.3076 0.0000
vt 0.6738 0.3164 0.0000
vt 0.8087 0.3076 0.0000
vt 0.8087 0.3164 0.0000
vt 0.6475 0.3073 0.0000
vt 0.6475 0.3162 0.0000
vt 0.8325 0.3058 0.0000
vt 0.8325 0.3147 0.0000
vt 0.8373 0.2303 0.0000
vt 0.8107 0.3057 0.0000
vt 0.8175 0.3057 0.0000
vt 0.8175 0.3146 0.0000
vt 0.8107 0.3146 0.0000
vt 0.8373 0.0134 0.0000
vt 0.8345 0.3066 0.0000
vt 0.8413 0.3066 0.0000
vt 0.8413 0.3154 0.0000
vt 0.8345 0.3154 0.0000
vt 0.6295 0.0134 0.0000
vt 0.6332 0.3173 0.0000
vt 0.6264 0.3173 0.0000
vt 0.6264 0.3084 0.0000
vt 0.6332 0.3084 0.0000
vt 0.6295 0.2303 0.0000
vt 0.6583 0.3168 0.0000
vt 0.6515 0.3168 0.0000
vt 0.6515 0.3079 0.0000
vt 0.6583 0.3079 0.0000
# 231 texture coords

g container1
usemtl wire_028149177
s 1
f 1/1/1 2/2/1 3/3/1 4/4/1 
f 5/5/2 6/6/2 7/7/2 8/8/2 
f 9/9/3 5/10/3 8/11/3 10/12/3 
f 11/13/3 12/14/3 13/15/3 14/16/3 
f 15/17/4 1/18/4 4/19/4 16/20/4 
f 17/21/4 18/22/4 19/23/4 20/24/4 
f 21/25/2 15/26/2 16/27/2 22/28/2 
f 23/29/1 17/30/1 20/31/1 24/32/1 
f 25/33/1 13/34/1 12/35/1 26/36/1 
f 6/6/2 27/37/2 28/38/2 7/7/2 
f 29/39/2 11/40/2 14/41/2 30/42/2 
f 31/43/1 9/44/1 10/45/1 32/46/1 
f 33/47/5 34/48/5 35/49/5 36/50/5 
f 37/51/6 38/52/6 39/53/6 40/54/6 
f 2/2/1 25/33/1 26/36/1 3/3/1 
f 22/55/2 29/56/2 30/57/2 21/58/2 
f 24/59/1 31/60/1 32/61/1 23/62/1 
f 41/57/5 42/63/5 43/64/5 44/65/5 
f 45/66/6 46/67/6 47/68/6 48/69/6 
f 27/37/2 19/70/2 18/71/2 28/38/2 
f 49/72/6 40/54/6 50/73/6 51/74/6 
f 37/51/6 52/75/6 53/76/6 54/77/6 
f 55/78/3 56/79/3 57/80/3 58/81/3 
f 59/82/3 60/83/3 61/84/3 62/85/3 
f 63/86/4 64/87/4 49/88/4 51/89/4 
f 52/90/4 65/91/4 66/92/4 53/93/4 
f 39/53/6 59/94/6 62/95/6 67/96/6 
f 57/97/6 38/52/6 68/98/6 58/99/6 
f 40/54/6 39/53/6 67/96/6 50/73/6 
f 38/52/6 37/51/6 54/77/6 68/98/6 
f 44/65/5 43/64/5 69/64/5 70/65/5 
f 42/63/5 41/57/5 71/57/5 72/63/5 
f 33/47/5 73/100/5 74/101/5 75/102/5 
f 76/103/5 36/50/5 77/104/5 78/105/5 
f 79/106/3 80/107/3 81/108/3 82/109/3 
f 83/110/3 84/111/3 85/112/3 86/113/3 
f 87/114/4 88/115/4 76/116/4 78/117/4 
f 73/118/4 89/119/4 90/120/4 74/121/4 
f 35/49/5 83/122/5 86/123/5 91/124/5 
f 81/125/5 34/48/5 92/126/5 82/127/5 
f 36/50/5 35/49/5 91/124/5 77/104/5 
f 34/48/5 33/47/5 75/102/5 92/126/5 
f 48/69/6 47/68/6 93/68/6 94/69/6 
f 46/67/6 45/66/6 95/66/6 96/67/6 
f 8/8/2 7/7/2 67/128/2 62/129/2 
f 6/6/2 5/5/2 82/130/2 92/131/2 
f 61/84/3 10/12/3 8/11/3 62/85/3 
f 5/10/3 9/9/3 79/106/3 82/109/3 
f 90/120/4 20/24/4 19/23/4 74/121/4 
f 18/22/4 17/21/4 63/86/4 51/89/4 
f 97/132/7 98/133/7 89/134/7 48/135/8 
f 99/136/1 100/137/1 41/138/9 64/139/1 
f 7/7/2 28/38/2 50/140/2 67/128/2 
f 27/37/2 6/6/2 92/131/2 75/141/2 
f 101/142/1 102/143/1 60/144/1 42/145/10 
f 103/146/7 104/147/7 47/148/7 80/149/7 
f 23/62/1 32/61/1 72/61/1 71/62/1 
f 31/60/1 24/59/1 94/59/1 93/60/1 
f 28/38/2 18/71/2 51/150/2 50/140/2 
f 19/70/2 27/37/2 75/141/2 74/151/2 
f 4/4/1 3/3/1 54/152/1 53/153/1 
f 2/2/1 1/1/1 78/154/1 77/155/1 
f 85/112/3 14/16/3 13/15/3 86/113/3 
f 12/14/3 11/13/3 55/78/3 58/81/3 
f 66/92/4 16/20/4 4/19/4 53/93/4 
f 1/18/4 15/17/4 87/114/4 78/117/4 
f 105/156/2 106/157/2 65/158/2 44/159/11 
f 107/160/12 108/161/12 45/162/13 88/163/12 
f 26/36/1 12/35/1 58/164/1 68/165/1 
f 13/34/1 25/33/1 91/166/1 86/167/1 
f 109/168/12 110/169/12 84/170/12 46/171/12 
f 111/172/2 112/173/2 43/174/14 56/175/2 
f 3/3/1 26/36/1 68/165/1 54/152/1 
f 25/33/1 2/2/1 77/155/1 91/166/1 
f 21/58/2 30/57/2 96/57/2 95/58/2 
f 29/56/2 22/55/2 70/55/2 69/56/2 
f 110/176/3 14/16/3 85/112/3 84/111/3 
f 46/111/4 96/112/4 30/16/4 109/176/4 
f 109/177/6 30/178/6 14/179/6 110/180/6 
f 34/108/3 47/107/3 46/111/3 35/110/3 
f 81/181/7 80/149/7 47/148/7 34/182/7 
f 84/170/12 83/183/12 35/184/12 46/171/12 
f 80/107/3 79/106/3 9/9/3 103/185/3 
f 103/186/6 9/187/6 31/188/6 104/189/6 
f 104/185/4 31/9/4 93/106/4 47/107/4 
f 38/80/3 43/79/14 42/83/10 39/82/3 
f 57/190/2 56/175/2 43/174/2 38/191/2 
f 60/144/1 59/192/1 39/193/1 42/145/1 
f 102/194/3 10/12/3 61/84/3 60/83/3 
f 42/83/4 72/84/4 32/12/4 101/194/4 
f 101/195/5 32/196/5 10/197/5 102/198/5 
f 56/79/3 55/78/3 11/13/3 111/199/3 
f 111/200/5 11/201/5 29/202/5 112/203/5 
f 112/199/4 29/13/4 69/78/4 43/79/4 
f 40/88/4 41/87/9 44/91/11 37/90/4 
f 36/116/4 45/115/13 48/119/8 33/118/4 
f 40/204/1 49/205/1 64/139/1 41/138/1 
f 52/206/2 37/207/2 44/159/2 65/158/2 
f 73/208/7 33/209/7 48/135/7 89/134/7 
f 36/210/12 76/211/12 88/163/12 45/162/12 
f 106/212/4 16/20/4 66/92/4 65/91/4 
f 44/91/3 70/92/3 22/20/3 105/212/3 
f 105/213/5 22/214/5 16/215/5 106/216/5 
f 88/115/4 87/114/4 15/17/4 107/217/4 
f 107/218/6 15/219/6 21/220/6 108/221/6 
f 108/217/3 21/17/3 95/114/3 45/115/3 
f 98/222/4 20/24/4 90/120/4 89/119/4 
f 48/119/3 94/120/3 24/24/3 97/222/3 
f 97/223/6 24/224/6 20/225/6 98/226/6 
f 64/87/4 63/86/4 17/21/4 99/227/4 
f 99/228/5 17/229/5 23/230/5 100/231/5 
f 100/227/3 23/21/3 71/86/3 41/87/3 
# 112 polygons

