# Blender v2.82 (sub 7) OBJ File: 'Boatwithhole.blend'
# www.blender.org
mtllib Boatwithhole.mtl
o Cube.001_Cube
v 1.055088 -0.666260 -0.153582
v 1.044783 -0.666260 -2.449790
v 2.055088 -0.666260 -0.153582
v 2.065394 -0.666260 -2.449790
v 0.876998 -0.739193 -1.904232
v 0.833638 -0.775828 -1.183085
v 0.944099 -0.739193 -0.503974
v 0.982155 -0.462910 -0.084885
v 0.945520 -0.166260 -0.001017
v 0.932957 -0.166260 -2.578549
v 0.970347 -0.462910 -2.494682
v 1.793597 -0.638499 -2.949955
v 1.316579 -0.638499 -2.949955
v 2.222251 -0.462910 -2.370887
v 2.166076 -0.739193 -0.503974
v 2.276537 -0.775828 -1.183085
v 2.233178 -0.739193 -1.904232
v 2.164656 -0.166260 -0.001017
v 2.128021 -0.462910 -0.084885
v 0.777677 -0.482417 -0.459317
v 0.721328 -0.166260 -0.420438
v 0.629760 -0.499400 -1.183085
v 0.561497 -0.166260 -1.183085
v 0.692297 -0.482417 -1.906854
v 0.629760 -0.166260 -1.945733
v 1.262567 -0.482417 -2.973430
v 1.246853 -0.166260 -2.972901
v 1.555088 -0.711240 -3.005161
v 1.847609 -0.482417 -2.973430
v 1.863323 -0.166260 -2.972901
v 2.332499 -0.482417 -0.612978
v 2.453597 -0.166260 -0.686224
v 1.555088 -0.499400 -0.035248
v 1.555088 -0.166260 0.005937
v 1.180902 -0.895250 -1.958249
v 1.929273 -0.895250 -1.958249
v 1.160802 -0.948089 -1.183085
v 1.866456 -0.817380 -2.456065
v 1.949373 -0.948089 -1.183085
v 1.217931 -0.895250 -0.459317
v 1.426349 -0.856151 -2.470366
v 1.892245 -0.895250 -0.459317
v 1.555088 -0.653856 -3.136357
v 1.555088 -0.748242 -0.119723
v 1.243934 -0.815050 -2.465406
v 1.683828 -0.856522 -2.468834
v 1.624043 -0.492720 -3.145967
v 1.486133 -0.492720 -3.145967
v 1.623703 -0.166260 -3.155048
v 1.486473 -0.166260 -3.155048
v 1.405713 -0.926995 -1.986503
v 1.704462 -0.926995 -1.986503
v 1.704899 -0.983851 -1.183085
v 1.405277 -0.983851 -1.183085
v 1.690143 -0.926923 -0.436011
v 1.420032 -0.926923 -0.436011
v 2.314797 -0.166260 -2.270235
v 1.098836 -0.605610 -0.219969
v 1.114845 -0.604472 -2.414111
v 2.007693 -0.607722 -0.219358
v 1.995449 -0.604597 -2.413665
v 0.944514 -0.667834 -1.885545
v 0.900126 -0.701210 -1.186448
v 1.010120 -0.668219 -0.528535
v 1.034705 -0.428738 -0.162799
v 0.996056 -0.142373 -0.083933
v 1.017524 -0.147897 -2.528441
v 1.053876 -0.431817 -2.449343
v 1.735417 -0.575421 -2.898617
v 1.375110 -0.575811 -2.898534
v 2.138062 -0.434561 -2.324972
v 2.095990 -0.672366 -0.528905
v 2.222516 -0.691768 -1.187010
v 2.178672 -0.657025 -1.887581
v 2.110483 -0.140841 -0.081134
v 2.070927 -0.429965 -0.160079
v 0.864853 -0.444742 -0.490632
v 0.812853 -0.145013 -0.454664
v 0.721386 -0.459677 -1.188216
v 0.659290 -0.146148 -1.188673
v 0.781741 -0.444278 -1.883516
v 0.723651 -0.144405 -1.919148
v 1.336486 -0.460071 -2.909900
v 1.321010 -0.157409 -2.906404
v 1.555049 -0.653241 -2.974276
v 1.772894 -0.461673 -2.910291
v 1.787551 -0.161844 -2.907795
v 2.244377 -0.445834 -0.642908
v 2.363754 -0.142495 -0.723143
v 1.555088 -0.472434 -0.131543
v 1.555088 -0.146490 -0.092088
v 1.215086 -0.802324 -1.944247
v 1.895120 -0.802312 -1.944262
v 1.192862 -0.853377 -1.184404
v 1.826797 -0.729728 -2.428794
v 1.917314 -0.853377 -1.184404
v 1.248580 -0.804421 -0.487779
v 1.439274 -0.759749 -2.447151
v 1.861595 -0.804420 -0.487779
v 1.555088 -0.608248 -3.059905
v 1.555088 -0.684275 -0.196587
v 1.283837 -0.727606 -2.437830
v 1.670827 -0.760141 -2.445564
v 1.609979 -0.478734 -3.054753
v 1.500197 -0.478734 -3.054753
v 1.613596 -0.163415 -3.061212
v 1.496580 -0.163415 -3.061212
v 1.414255 -0.828024 -1.975049
v 1.695978 -0.828015 -1.975077
v 1.697355 -0.884138 -1.183482
v 1.412821 -0.884138 -1.183482
v 1.680716 -0.832383 -0.467198
v 1.429460 -0.832383 -0.467198
v 2.230416 -0.160159 -2.216919
v 1.511864 -0.658119 -3.057593
v 1.484689 -0.063691 -3.083924
v 1.501240 -0.657264 -3.147393
v 1.474134 -0.063691 -3.245832
v 1.598312 -0.658119 -3.057593
v 1.625487 -0.063691 -3.083924
v 1.608936 -0.657264 -3.147393
v 1.636042 -0.063691 -3.245832
v 1.484689 -0.493465 -3.083924
v 1.474134 -0.493465 -3.245832
v 1.636042 -0.493465 -3.245832
v 1.625487 -0.493465 -3.083924
v 1.001410 -0.459197 -0.150725
v 0.989998 -0.459197 -2.491932
v 2.108767 -0.459197 -0.150725
v 0.797773 -0.459197 -0.531691
v 0.652596 -0.459197 -1.224414
v 0.714601 -0.459197 -1.917136
v 1.275115 -0.459197 -2.850127
v 1.835062 -0.459197 -2.850126
v 1.555088 -0.459197 -0.144409
v 1.639517 -0.459197 -3.015573
v 1.470659 -0.459197 -3.015573
v 1.202427 -0.459197 -1.932132
v 1.914108 -0.459197 -1.240908
v 1.205405 -0.459197 -1.187696
v 2.171651 -0.459197 -0.268371
v 2.033385 -0.459197 -2.600971
v 1.967209 -0.427442 -1.837365
v 1.716442 -0.427442 -1.838254
v 1.608588 -0.459197 -3.015573
v 1.671713 -0.459197 -1.930137
v 1.440557 -0.463936 -1.934622
v 1.410151 -0.459197 -1.931229
v 1.538676 -0.459197 -1.189096
v 1.570135 -0.459197 -1.239331
v 1.001410 -0.359200 -0.150725
v 0.989998 -0.359197 -2.491932
v 2.108767 -0.359197 -0.150725
v 0.797773 -0.359197 -0.531691
v 0.652596 -0.359197 -1.224414
v 0.714601 -0.359200 -1.917136
v 1.275115 -0.359197 -2.850127
v 1.837012 -0.359267 -2.853297
v 1.555088 -0.359197 -0.144409
v 1.641467 -0.359267 -3.018744
v 1.469808 -0.359203 -3.015417
v 1.202427 -0.359197 -1.932132
v 1.914108 -0.359197 -1.240908
v 1.205405 -0.359197 -1.187696
v 2.171651 -0.359197 -0.268371
v 2.035336 -0.359267 -2.604142
v 1.969159 -0.327512 -1.840536
v 1.718392 -0.327512 -1.841425
v 1.608841 -0.359209 -3.016958
v 1.670428 -0.359206 -1.929899
v 1.439273 -0.363946 -1.934384
v 1.410151 -0.359200 -1.931229
v 1.538676 -0.359197 -1.189096
v 1.570135 -0.359197 -1.239331
vt 0.128100 0.325663
vt 0.132569 0.420580
vt 0.064633 0.446884
vt 0.042032 0.317532
vt 0.046346 0.544298
vt 0.062415 0.452945
vt 0.085773 0.455411
vt 0.127202 0.607069
vt 0.121750 0.607921
vt 0.082719 0.584139
vt 0.176220 0.776709
vt 0.146457 0.782205
vt 0.097295 0.615620
vt 0.051043 0.472198
vt 0.137858 0.500908
vt 0.119282 0.576210
vt 0.052288 0.165511
vt 0.100716 0.015337
vt 0.139896 0.022932
vt 0.179129 0.166419
vt 0.161869 0.187059
vt 0.825186 0.712504
vt 0.842861 0.608853
vt 0.870959 0.551157
vt 0.953119 0.547120
vt 0.956531 0.702300
vt 0.907048 0.703958
vt 0.632385 0.633108
vt 0.658307 0.593533
vt 0.684960 0.566373
vt 0.689811 0.566189
vt 0.689811 0.741646
vt 0.652730 0.745241
vt 0.426300 0.703294
vt 0.426928 0.682648
vt 0.587586 0.681218
vt 0.587586 0.715572
vt 0.956531 0.973811
vt 0.926703 0.950363
vt 0.882371 0.898784
vt 0.838269 0.814994
vt 0.910773 0.814490
vt 0.941606 0.813193
vt 0.426300 0.680696
vt 0.426861 0.598438
vt 0.444296 0.589016
vt 0.588950 0.626613
vt 0.588950 0.677714
vt 0.012731 0.278195
vt 0.027606 0.323222
vt 0.000261 0.280660
vt 0.047419 0.444827
vt 0.053401 0.441040
vt 0.095058 0.439721
vt 0.151215 0.006422
vt 0.197664 0.161263
vt 0.030317 0.540881
vt 0.197664 0.789445
vt 0.135945 0.811975
vt 0.144355 0.601938
vt 0.037666 0.471112
vt 0.079603 0.620784
vt 0.090660 0.000261
vt 0.037639 0.160669
vt 0.121284 0.235756
vt 0.112862 0.186466
vt 0.487511 0.432192
vt 0.442329 0.439318
vt 0.440609 0.330312
vt 0.488774 0.333350
vt 0.453713 0.222045
vt 0.498866 0.233668
vt 0.521588 0.480101
vt 0.493403 0.486904
vt 0.529468 0.432131
vt 0.458111 0.498455
vt 0.475752 0.121063
vt 0.519043 0.141099
vt 0.544022 0.235283
vt 0.551243 0.150285
vt 0.536680 0.337833
vt 0.277424 0.051401
vt 0.321782 0.022786
vt 0.343616 0.064104
vt 0.303371 0.085946
vt 0.595305 0.224743
vt 0.631863 0.216848
vt 0.631863 0.350624
vt 0.591639 0.344769
vt 0.543930 0.059996
vt 0.569059 0.065290
vt 0.496211 0.047844
vt 0.413115 0.168877
vt 0.360652 0.176727
vt 0.281454 0.096797
vt 0.318697 0.173094
vt 0.591125 0.021545
vt 0.603250 0.042592
vt 0.250896 0.061709
vt 0.339814 0.260784
vt 0.365983 0.476077
vt 0.418010 0.505296
vt 0.342933 0.560230
vt 0.320350 0.537372
vt 0.316930 0.476375
vt 0.300810 0.520338
vt 0.290233 0.617462
vt 0.256602 0.577866
vt 0.536196 0.561861
vt 0.480265 0.584772
vt 0.244459 0.483576
vt 0.273051 0.478123
vt 0.235806 0.541694
vt 0.570535 0.451977
vt 0.597990 0.470174
vt 0.576378 0.535569
vt 0.250147 0.247034
vt 0.285503 0.252774
vt 0.283203 0.373221
vt 0.245025 0.372248
vt 0.252101 0.171568
vt 0.280485 0.175101
vt 0.589258 0.143465
vt 0.561333 0.017899
vt 0.341089 0.376373
vt 0.508309 0.000261
vt 0.198186 0.371884
vt 0.202975 0.244234
vt 0.204130 0.488578
vt 0.244657 0.083888
vt 0.618739 0.135316
vt 0.212463 0.167056
vt 0.894168 0.129416
vt 0.874332 0.229613
vt 0.825186 0.224955
vt 0.851749 0.110977
vt 0.872377 0.330856
vt 0.826526 0.339265
vt 0.936520 0.096641
vt 0.931212 0.139742
vt 0.914132 0.081081
vt 0.880414 0.052155
vt 0.891325 0.422325
vt 0.849957 0.441626
vt 0.912790 0.332943
vt 0.918505 0.414911
vt 0.917547 0.232416
vt 0.707152 0.524511
vt 0.726706 0.498479
vt 0.766769 0.519568
vt 0.747982 0.550390
vt 0.956090 0.346870
vt 0.965803 0.234375
vt 0.999739 0.235370
vt 0.985621 0.356416
vt 0.937026 0.494968
vt 0.919019 0.498921
vt 0.874873 0.512623
vt 0.777625 0.408559
vt 0.824665 0.408878
vt 0.710242 0.491608
vt 0.742134 0.416588
vt 0.963251 0.513380
vt 0.956379 0.526854
vt 0.686115 0.519483
vt 0.763065 0.333813
vt 0.776839 0.134807
vt 0.740562 0.072166
vt 0.769425 0.039720
vt 0.824665 0.124023
vt 0.734456 0.130657
vt 0.721219 0.090098
vt 0.671524 0.045180
vt 0.694701 0.000261
vt 0.981209 0.042315
vt 0.950823 0.000261
vt 0.670868 0.125946
vt 0.658490 0.077653
vt 0.696673 0.129390
vt 0.969789 0.133189
vt 0.999739 0.073217
vt 0.996115 0.125830
vt 0.683986 0.350345
vt 0.675621 0.230496
vt 0.709046 0.228757
vt 0.714173 0.343590
vt 0.687121 0.422192
vt 0.710608 0.417596
vt 0.949296 0.422149
vt 0.934358 0.528812
vt 0.761450 0.225081
vt 0.888525 0.546598
vt 0.697504 0.538296
vt 0.737987 0.565667
vt 0.640967 0.354075
vt 0.632385 0.232363
vt 0.633774 0.123458
vt 0.681600 0.505198
vt 0.972518 0.429351
vt 0.652369 0.426681
vt 0.705126 0.566189
vt 0.705126 0.673654
vt 0.690332 0.672292
vt 0.690367 0.567884
vt 0.427680 0.441178
vt 0.426300 0.329631
vt 0.438352 0.219587
vt 0.445121 0.501875
vt 0.460783 0.116848
vt 0.481388 0.042858
vt 0.356293 0.055962
vt 0.425778 0.160329
vt 0.300682 0.627155
vt 0.300682 0.678615
vt 0.285886 0.677291
vt 0.285829 0.627418
vt 0.425778 0.516109
vt 0.350450 0.568735
vt 0.300498 0.626633
vt 0.464819 0.588494
vt 0.325649 0.000261
vt 0.340773 0.004566
vt 0.337476 0.023772
vt 0.492736 0.005144
vt 0.285307 0.627155
vt 0.285307 0.707737
vt 0.270796 0.704557
vt 0.271073 0.631408
vt 0.631747 0.589016
vt 0.631747 0.684631
vt 0.617583 0.680153
vt 0.617082 0.591389
vt 0.316059 0.627155
vt 0.316059 0.675682
vt 0.301204 0.675448
vt 0.301395 0.629538
vt 0.248634 0.662836
vt 0.248634 0.728889
vt 0.222022 0.727980
vt 0.225270 0.667701
vt 0.198186 0.725955
vt 0.203562 0.662684
vt 0.589472 0.652792
vt 0.592483 0.589016
vt 0.616560 0.590153
vt 0.613549 0.653929
vt 0.270274 0.662836
vt 0.270274 0.728889
vt 0.231228 0.646211
vt 0.218247 0.637008
vt 0.229766 0.627155
vt 0.240413 0.636984
vt 0.222846 0.754539
vt 0.249350 0.751984
vt 0.603153 0.677992
vt 0.616560 0.678846
vn 0.0000 -1.0000 0.0000
vn -0.0195 -0.9993 0.0317
vn 0.0129 -0.9999 -0.0024
vn -0.0000 1.0000 0.0000
vn 0.0195 0.9993 -0.0317
vn -0.0128 0.9999 0.0024
vn -0.0042 0.0000 -1.0000
vn 1.0000 0.0000 -0.0040
vn -0.0035 0.0318 0.9995
vn 0.9667 0.0000 -0.2560
vn 0.9961 -0.0167 0.0870
vn -0.0193 -0.0026 0.9998
vn -0.9957 0.0131 0.0917
vn 0.9983 0.0048 -0.0573
vn -0.0043 0.0000 1.0000
vn -0.9995 -0.0106 -0.0281
vn 0.9985 0.0042 0.0553
vn -0.0046 0.0000 -1.0000
vn 0.9999 0.0000 -0.0157
vn -0.9999 0.0000 -0.0137
vn -0.8718 -0.3768 0.3132
vn -0.9153 -0.2125 0.3423
vn -0.9780 -0.2011 0.0559
vn -0.9163 -0.3972 0.0513
vn -0.9389 -0.2186 -0.2658
vn -0.8945 -0.3814 -0.2334
vn -0.5703 -0.6908 0.4444
vn -0.8266 -0.3486 0.4419
vn -0.6602 -0.7098 0.2456
vn -0.8554 -0.2234 0.4674
vn -0.8457 -0.1837 -0.5011
vn -0.8353 -0.3109 -0.4534
vn -0.6752 -0.7136 -0.1869
vn -0.7006 -0.6179 -0.3568
vn -0.6649 -0.7462 0.0336
vn 0.6068 -0.1821 -0.7737
vn 0.6081 -0.0251 -0.7934
vn 0.7402 -0.0442 -0.6710
vn 0.7330 -0.2002 -0.6501
vn -0.3418 -0.9293 -0.1400
vn -0.0854 -0.9897 -0.1145
vn -0.0754 -0.9971 0.0040
vn -0.3206 -0.9471 0.0132
vn -0.7250 -0.2163 -0.6539
vn -0.5787 -0.6183 -0.5318
vn -0.7236 -0.0887 -0.6845
vn 0.8438 -0.0610 -0.5332
vn 0.8419 -0.2835 -0.4592
vn 0.5752 -0.6222 -0.5310
vn 0.6995 -0.6167 -0.3612
vn -0.3488 -0.8587 -0.3756
vn 0.0004 -0.9283 -0.3719
vn 0.5943 -0.3079 -0.7430
vn 0.5451 -0.8217 -0.1665
vn 0.8812 -0.3658 0.2993
vn 0.8985 -0.2377 0.3692
vn 0.8787 -0.3126 0.3608
vn 0.7009 -0.6683 0.2493
vn 0.6221 -0.6571 0.4257
vn 0.0766 -0.2548 0.9639
vn 0.0529 -0.1974 0.9789
vn 0.0000 -0.1977 0.9803
vn 0.0000 -0.2697 0.9630
vn -0.0529 -0.1974 0.9789
vn -0.0766 -0.2548 0.9639
vn 0.0943 -0.9454 0.3119
vn 0.3065 -0.9083 0.2846
vn 0.0000 -0.8472 0.5313
vn -0.3065 -0.9083 0.2846
vn -0.0943 -0.9454 0.3119
vn 0.0849 -0.9898 -0.1143
vn 0.3416 -0.9294 -0.1399
vn 0.3206 -0.9471 0.0132
vn 0.0754 -0.9971 0.0040
vn 0.1300 -0.9638 -0.2327
vn 0.3966 -0.8765 -0.2727
vn -0.3991 -0.8745 -0.2758
vn 0.1098 -0.3347 0.9359
vn 0.0000 -0.3368 0.9416
vn -0.6068 -0.1821 -0.7737
vn -0.5943 -0.3079 -0.7430
vn 0.4758 -0.8794 0.0176
vn -0.6081 -0.0251 -0.7934
vn -0.1098 -0.3347 0.9359
vn 0.3488 -0.8587 -0.3756
vn -0.1293 -0.9640 -0.2322
vn 0.8582 -0.4858 0.1658
vn 0.8764 0.3747 -0.3024
vn 0.9171 0.3953 -0.0515
vn 0.9791 0.1956 -0.0562
vn 0.9205 0.2083 -0.3305
vn 0.8952 0.3792 0.2344
vn 0.9396 0.2148 0.2667
vn 0.5806 0.6925 -0.4281
vn 0.6614 0.7118 -0.2366
vn 0.8383 0.3478 -0.4199
vn 0.8680 0.2214 -0.4446
vn 0.8371 0.3035 0.4551
vn 0.8457 0.1816 0.5018
vn 0.6735 0.7149 0.1878
vn 0.7032 0.6148 0.3572
vn 0.6628 0.7480 -0.0336
vn -0.6676 0.1653 0.7260
vn -0.7601 0.1851 0.6229
vn -0.7637 0.0404 0.6443
vn -0.6630 0.0245 0.7482
vn 0.3359 0.9315 0.1398
vn 0.3156 0.9488 -0.0122
vn 0.0724 0.9974 -0.0023
vn 0.0812 0.9902 0.1138
vn 0.6315 0.5853 0.5085
vn 0.7530 0.1996 0.6270
vn 0.7484 0.0876 0.6575
vn -0.8421 0.2818 0.4599
vn -0.8442 0.0547 0.5333
vn -0.6274 0.5906 0.5075
vn -0.6995 0.6148 0.3644
vn -0.0003 0.9187 0.3949
vn 0.4996 0.7667 0.4031
vn -0.6620 0.2701 0.6991
vn -0.5404 0.8253 0.1637
vn -0.8866 0.3640 -0.2855
vn -0.8874 0.3131 -0.3384
vn -0.9059 0.2423 -0.3474
vn -0.8604 0.4308 -0.2722
vn -0.8556 0.4040 -0.3237
vn -0.0506 0.2415 -0.9691
vn 0.0020 0.2564 -0.9666
vn 0.0024 0.1910 -0.9816
vn -0.0247 0.1905 -0.9814
vn 0.0547 0.2405 -0.9691
vn 0.0295 0.1914 -0.9811
vn -0.0927 0.9478 -0.3051
vn 0.0009 0.8530 -0.5219
vn -0.3201 0.8365 -0.4448
vn -0.3033 0.9114 -0.2783
vn 0.3038 0.9109 -0.2792
vn 0.0934 0.9475 -0.3058
vn -0.0806 0.9903 0.1136
vn -0.0724 0.9974 -0.0023
vn -0.3180 0.9480 -0.0114
vn -0.3381 0.9308 0.1391
vn -0.1503 0.9661 0.2100
vn -0.4124 0.8718 0.2643
vn 0.4153 0.8695 0.2675
vn -0.0889 0.3159 -0.9446
vn 0.0015 0.3155 -0.9489
vn 0.6626 0.2703 0.6985
vn 0.6678 0.1657 0.7256
vn -0.4757 0.8795 -0.0138
vn -0.4951 0.8472 -0.1928
vn 0.6628 0.0241 0.7484
vn 0.0920 0.3124 -0.9455
vn 0.0000 -0.0051 1.0000
vn 0.0000 0.0205 0.9998
vn 0.0000 -0.0397 0.9992
vn -0.4998 0.7668 0.4027
vn 0.1490 0.9664 0.2093
vn -0.8619 0.4742 -0.1797
vn 0.7662 0.6147 -0.1872
vn 0.7771 0.6132 0.1417
vn 0.7670 0.6204 0.1638
vn 0.7548 0.6220 -0.2085
vn -0.2085 0.9780 0.0122
vn -0.2116 0.9744 0.0759
vn -0.2115 0.9745 0.0752
vn -0.2085 0.9780 0.0123
vn -0.1970 0.9789 -0.0542
vn -0.1972 0.9789 -0.0538
vn -0.1083 0.9788 0.1737
vn -0.1082 0.9788 0.1737
vn -0.1424 0.9855 -0.0918
vn -0.1411 0.9857 -0.0918
vn -0.0680 0.9948 -0.0757
vn -0.0658 0.9951 -0.0745
vn 0.0439 0.9986 -0.0294
vn 0.0338 0.9989 -0.0312
vn 0.0335 0.9989 -0.0313
vn 0.2365 -0.3192 -0.9177
vn 0.1228 0.9768 0.1754
vn 0.2478 0.9636 0.1000
vn 0.1221 0.9768 0.1758
vn -0.0009 0.9704 0.2415
vn 0.0095 0.9995 -0.0315
vn -0.0129 0.9991 -0.0411
vn -0.0177 0.9988 -0.0450
vn 0.0131 0.9994 -0.0319
vn 0.6747 0.6618 0.3267
vn 0.6512 0.6643 -0.3670
vn 0.3930 -0.4252 0.8153
vn -0.9948 -0.0694 0.0745
vn -0.9979 0.0000 0.0651
vn -0.9960 -0.0522 0.0722
vn 0.0000 0.0000 -1.0000
vn 0.9960 -0.0522 0.0722
vn 0.9979 0.0000 0.0651
vn 0.9948 -0.0694 0.0745
vn 0.0000 0.0000 1.0000
vn 0.0000 -1.0000 -0.0095
vn 0.9878 -0.1318 0.0827
vn 0.0000 -0.5151 -0.8571
vn -0.9878 -0.1318 0.0827
usemtl None
s off
f 131/1/1 132/2/1 138/3/1 140/4/1
f 142/5/2 143/6/2 144/7/2 145/8/2 136/9/2 134/10/2
f 145/8/3 146/11/3 147/12/3 137/13/3
f 137/13/1 148/14/1 138/3/1 132/2/1 128/15/1 133/16/1
f 135/17/1 150/18/1 139/19/1 141/20/1 129/21/1
f 155/22/4 154/23/4 151/24/4 159/25/4 173/26/4 164/27/4
f 166/28/5 158/29/5 160/30/5 169/31/5 168/32/5 167/33/5
f 169/34/6 161/35/6 171/36/6 170/37/6
f 161/38/4 157/39/4 152/40/4 156/41/4 162/42/4 172/43/4
f 159/44/4 153/45/4 165/46/4 163/47/4 174/48/4
f 149/49/7 140/4/7 164/50/7 173/51/7
f 140/4/8 138/3/8 162/52/8 164/50/8
f 144/7/9 143/6/9 167/53/9 168/54/9
f 141/20/10 139/19/10 163/55/10 165/56/10
f 143/6/11 142/5/11 166/57/11 167/53/11
f 147/12/12 146/11/12 170/58/12 171/59/12
f 145/8/13 144/7/13 168/54/13 169/60/13
f 146/11/14 145/8/14 169/60/14 170/58/14
f 138/3/15 148/14/15 172/61/15 162/52/15
f 137/13/16 147/12/16 171/59/16 161/62/16
f 148/14/17 137/13/17 161/62/17 172/61/17
f 139/19/18 150/18/18 174/63/18 163/55/18
f 135/17/19 149/49/19 173/51/19 159/64/19
f 150/18/20 135/17/20 159/64/20 174/63/20
f 156/41/4 155/22/4 164/27/4 162/42/4
f 130/65/1 131/1/1 140/4/1 149/49/1 135/17/1 127/66/1
s 1
f 20/67/21 21/68/22 23/69/23 22/70/24
f 22/70/24 23/69/23 25/71/25 24/72/26
f 1/73/27 8/74/28 20/67/21 7/75/29
f 8/74/28 9/76/30 21/68/22 20/67/21
f 24/72/26 25/71/25 10/77/31 11/78/32
f 5/79/33 24/72/26 11/78/32 2/80/34
f 6/81/35 22/70/24 24/72/26 5/79/33
f 7/75/29 20/67/21 22/70/24 6/81/35
f 47/82/36 49/83/37 30/84/38 29/85/39
f 35/86/40 51/87/41 54/88/42 37/89/43
f 2/80/34 11/78/32 26/90/44 13/91/45
f 11/78/32 10/77/31 27/92/46 26/90/44
f 29/85/39 30/84/38 57/93/47 14/94/48
f 12/95/49 29/85/39 14/94/48 4/96/50
f 13/91/45 43/97/51 28/98/52
f 43/99/53 47/82/36 29/85/39 12/95/49
f 4/96/50 14/94/48 17/100/54
f 31/101/55 32/102/56 18/103/56 19/104/57
f 15/105/58 31/101/55 19/104/57 3/106/59
f 19/104/60 18/103/61 34/107/62 33/108/63
f 33/109/63 34/110/62 9/76/64 8/74/65
f 55/111/66 42/112/67 3/106/59 44/113/68
f 40/114/69 56/115/70 44/116/68 1/73/27
f 52/117/71 36/118/72 39/119/73 53/120/74
f 37/89/43 54/88/42 56/115/70 40/114/69
f 53/120/74 39/119/73 42/112/67 55/111/66
f 46/121/75 38/122/76 36/118/72 52/117/71
f 2/80/34 13/91/45 45/123/77
f 3/106/78 19/104/60 33/108/63 44/113/79
f 13/91/45 26/90/44 48/124/80 43/97/81
f 12/95/49 4/96/50 38/122/76
f 36/118/72 17/100/54 16/125/82 39/119/73
f 39/119/73 16/125/82 15/105/58 42/112/67
f 42/112/67 15/105/58 3/106/59
f 26/90/44 27/92/46 50/126/83 48/124/80
f 44/116/79 33/109/63 8/74/65 1/73/84
f 7/75/29 40/114/69 1/73/27
f 6/81/35 37/89/43 40/114/69 7/75/29
f 5/79/33 35/86/40 37/89/43 6/81/35
f 52/117/71 53/120/74 54/127/42 51/128/41
f 53/120/74 55/111/66 56/129/70 54/127/42
f 44/113/68 56/129/70 55/111/66
f 43/99/85 12/95/49 28/130/52
f 45/123/77 41/131/86 51/87/41 35/86/40
f 38/122/76 4/96/50 17/100/54 36/118/72
f 41/132/86 46/121/75 52/117/71 51/128/41
f 45/123/77 35/86/40 5/79/33 2/80/34
f 28/130/52 12/95/49 38/122/76 46/121/75
f 28/98/52 41/131/86 45/123/77 13/91/45
f 28/130/52 46/121/75 41/132/86
f 31/101/55 15/105/58 16/125/87
f 77/133/88 79/134/89 80/135/90 78/136/91
f 79/134/89 81/137/92 82/138/93 80/135/90
f 58/139/94 64/140/95 77/133/88 65/141/96
f 65/141/96 77/133/88 78/136/91 66/142/97
f 81/137/92 68/143/98 67/144/99 82/138/93
f 62/145/100 59/146/101 68/143/98 81/137/92
f 63/147/102 62/145/100 81/137/92 79/134/89
f 64/140/95 63/147/102 79/134/89 77/133/88
f 104/148/103 86/149/104 87/150/105 106/151/106
f 92/152/107 94/153/108 111/154/109 108/155/110
f 59/146/101 70/156/111 83/157/112 68/143/98
f 68/143/98 83/157/112 84/158/113 67/144/99
f 86/149/104 71/159/114 114/160/115 87/150/105
f 69/161/116 61/162/117 71/159/114 86/149/104
f 70/156/111 85/163/118 100/164/119
f 100/165/120 69/161/116 86/149/104 104/148/103
f 61/162/117 74/166/121 71/159/114
f 88/167/122 76/168/123 75/169/124 89/170/124
f 72/171/125 60/172/126 76/168/123 88/167/122
f 76/168/127 90/173/128 91/174/129 75/169/130
f 90/175/128 65/141/131 66/142/132 91/176/129
f 112/177/133 101/178/134 60/172/135 99/179/136
f 97/180/137 58/139/94 101/181/134 113/182/138
f 109/183/139 110/184/140 96/185/141 93/186/142
f 94/153/108 97/180/137 113/182/138 111/154/109
f 110/184/140 112/177/133 99/179/136 96/185/141
f 103/187/143 109/183/139 93/186/142 95/188/144
f 59/146/101 102/189/145 70/156/111
f 60/172/146 101/178/147 90/173/128 76/168/127
f 70/156/111 100/164/148 105/190/149 83/157/112
f 69/161/116 95/188/144 61/162/117
f 93/186/142 96/185/141 73/191/150 74/166/121
f 96/185/141 99/179/136 72/171/151 73/191/150
f 99/179/136 60/172/135 72/171/151
f 83/157/112 105/190/149 107/192/152 84/158/113
f 101/181/147 58/139/153 65/141/131 90/175/128
f 64/140/95 58/139/94 97/180/137
f 63/147/102 64/140/95 97/180/137 94/153/108
f 62/145/100 63/147/102 94/153/108 92/152/107
f 105/193/154 104/148/154 106/151/155 107/194/155
f 100/165/156 104/148/154 105/193/154
f 109/183/139 108/195/110 111/196/109 110/184/140
f 110/184/140 111/196/109 113/197/138 112/177/133
f 101/178/134 112/177/133 113/197/138
f 100/165/157 85/198/118 69/161/116
f 102/189/145 92/152/107 108/155/110 98/199/158
f 95/188/144 93/186/142 74/166/121 61/162/117
f 98/200/158 108/195/110 109/183/139 103/187/143
f 102/189/145 59/146/101 62/145/100 92/152/107
f 85/198/118 103/187/143 95/188/144 69/161/116
f 85/163/118 70/156/111 102/189/145 98/199/158
f 85/198/118 98/200/158 103/187/143
f 88/167/122 73/191/159 72/171/125
f 16/201/160 17/202/161 74/203/162 73/204/163
f 23/69/164 21/68/165 78/205/166 80/206/167
f 25/71/168 23/69/164 80/206/167 82/207/169
f 21/68/165 9/76/170 66/208/171 78/205/166
f 10/77/172 25/71/168 82/207/169 67/209/173
f 27/92/174 10/77/172 67/209/173 84/210/175
f 57/93/176 30/84/177 87/211/178 114/212/176
f 32/213/179 31/214/179 88/215/179 89/216/179
f 18/103/180 32/102/181 89/217/181 75/218/182
f 34/107/183 18/103/180 75/218/182 91/219/183
f 9/76/170 34/110/183 91/220/183 66/208/171
f 49/83/184 50/221/185 107/222/186 106/223/187
f 50/126/185 27/92/174 84/210/175 107/224/186
f 30/84/177 49/83/184 106/223/187 87/211/178
f 17/225/161 14/226/188 71/227/188 74/228/162
f 31/229/189 16/230/160 73/231/163 88/232/189
f 14/233/190 57/234/190 114/235/190 71/236/190
f 123/237/191 116/238/192 118/239/192 124/240/193
f 124/240/194 118/239/194 122/241/194 125/242/194
f 125/243/195 122/244/196 120/245/196 126/246/197
f 126/247/198 120/248/198 116/238/198 123/237/198
f 117/249/199 121/250/199 119/251/199 115/252/199
f 122/253/4 118/239/4 116/238/4 120/254/4
f 121/255/200 125/243/195 126/246/197 119/256/200
f 117/249/201 124/240/201 125/242/201 121/250/201
f 115/252/202 123/237/191 124/240/193 117/249/202
